<svg xmlns="http://www.w3.org/2000/svg" viewBox="0 0 200 200" width="200" height="200">
  <rect width="200" height="200" fill="#08090D"/>
  <g transform="translate(20, 20)">
    <polygon points="80,6 146,43 146,117 80,154 14,117 14,43"
      stroke="#F0EDE6" stroke-opacity="0.82" stroke-width="1.4" fill="none"/>
    <polygon points="80,22 130,51 130,109 80,138 30,109 30,51"
      stroke="#F0EDE6" stroke-opacity="0.06" stroke-width="0.6" fill="none"/>
    <!-- Vertex ticks -->
    <line x1="80"  y1="6"   x2="80"  y2="18"  stroke="#7F77DD" stroke-width="1.8" stroke-linecap="square" stroke-opacity="0.9"/>
    <line x1="80"  y1="142" x2="80"  y2="154" stroke="#F0EDE6" stroke-width="1.4" stroke-linecap="square" stroke-opacity="0.8"/>
    <line x1="146" y1="43"  x2="135" y2="49"  stroke="#F0EDE6" stroke-width="1.4" stroke-linecap="square" stroke-opacity="0.8"/>
    <line x1="146" y1="117" x2="135" y2="111" stroke="#F0EDE6" stroke-width="1.4" stroke-linecap="square" stroke-opacity="0.8"/>
    <line x1="14"  y1="43"  x2="25"  y2="49"  stroke="#F0EDE6" stroke-width="1.4" stroke-linecap="square" stroke-opacity="0.8"/>
    <line x1="14"  y1="117" x2="25"  y2="111" stroke="#F0EDE6" stroke-width="1.4" stroke-linecap="square" stroke-opacity="0.8"/>
    <!-- Ghost crosshair -->
    <line x1="14" y1="80" x2="146" y2="80" stroke="#F0EDE6" stroke-width="0.4" stroke-opacity="0.06"/>
    <line x1="80" y1="6"  x2="80"  y2="154" stroke="#F0EDE6" stroke-width="0.4" stroke-opacity="0.06"/>
    <!-- Fragmented A -->
    <line x1="50"  y1="114" x2="80"  y2="50"  stroke="#F0EDE6" stroke-width="3"   stroke-linecap="square"/>
    <line x1="110" y1="114" x2="82"  y2="54"  stroke="#F0EDE6" stroke-width="3"   stroke-linecap="square"/>
    <line x1="58"  y1="90"  x2="73"  y2="90"  stroke="#F0EDE6" stroke-width="2.6" stroke-linecap="square"/>
    <line x1="87"  y1="90"  x2="102" y2="90"  stroke="#F0EDE6" stroke-width="2.6" stroke-linecap="square"/>
    <line x1="50"  y1="114" x2="66"  y2="114" stroke="#F0EDE6" stroke-width="2.6" stroke-linecap="square"/>
    <line x1="94"  y1="114" x2="110" y2="114" stroke="#F0EDE6" stroke-width="2.6" stroke-linecap="square"/>
    <!-- Purple diamonds -->
    <polygon points="80,85 84,90 80,95 76,90"  fill="#7F77DD" fill-opacity="0.95"/>
    <polygon points="80,81 88,90 80,99 72,90"  fill="#534AB7" fill-opacity="0.2"/>
    <polygon points="80,44 84,50 80,56 76,50"  fill="#7F77DD" fill-opacity="0.7"/>
    <polygon points="80,110 83,114 80,118 77,114" fill="#7F77DD" fill-opacity="0.45"/>
    <!-- Brackets -->
    <path d="M 124 22 L 138 22 L 138 36" stroke="#7F77DD" stroke-width="1.2" stroke-linecap="square" stroke-opacity="0.6" fill="none"/>
    <path d="M 36 138 L 22 138 L 22 124"  stroke="#7F77DD" stroke-width="1.2" stroke-linecap="square" stroke-opacity="0.6" fill="none"/>
    <!-- Side diamonds -->
    <polygon points="146,80 150,84 146,88 142,84" fill="#7F77DD" fill-opacity="0.35"/>
    <polygon points="14,80  18,84  14,88  10,84"  fill="#7F77DD" fill-opacity="0.35"/>
  </g>
</svg>
